# xmcd
#
# Track frame offsets: 
#        150
#        13687
#        26850
#        40612
#        55537
#        73387
#        88012
#        103612
#        119212
#        129487
#        145837
#        159262
#
# Disc length: 2328 seconds
#
# Revision: 0
# Processed by: cddbd v1.5.1PL0 Copyright (c) Steve Scherf et al.
# Submitted via: ExactAudioCopy v0.95a3
#
DISCID=a409160c
DTITLE=The Woodys - The Woodys
DYEAR=1998
DGENRE=Country
TTITLE0=Mama and Them
TTITLE1=A Hundred Years of Solitude
TTITLE2=Second Wind
TTITLE3=Bobby and Juanita
TTITLE4=Habits of the Heart
TTITLE5=Circle of Angels
TTITLE6=The Rain Came Down
TTITLE7=High Lonesome
TTITLE8=I Don't Mean Maybe
TTITLE9=Alabama 'Shine
TTITLE10=Closer to the Flame
TTITLE11=Like Strangers
EXTD=
EXTT0=
EXTT1=
EXTT2=
EXTT3=
EXTT4=
EXTT5=
EXTT6=
EXTT7=
EXTT8=
EXTT9=
EXTT10=
EXTT11=
PLAYORDER=
